<?xml version="1.0" standalone="no"?>
<!DOCTYPE svg PUBLIC "-//W3C//DTD SVG 20010904//EN"
 "http://www.w3.org/TR/2001/REC-SVG-20010904/DTD/svg10.dtd">
<svg version="1.0" xmlns="http://www.w3.org/2000/svg"
 width="700.000000pt" height="700.000000pt" viewBox="0 0 700.000000 700.000000"
 preserveAspectRatio="xMidYMid meet">
<metadata>
Created by potrace 1.14, written by Peter Selinger 2001-2017
</metadata>
<g transform="translate(0.000000,700.000000) scale(0.100000,-0.100000)"
fill="#000000" stroke="none">
<path d="M310 6984 c-141 -38 -252 -149 -294 -293 -14 -49 -16 -359 -16 -3196
0 -3115 0 -3143 20 -3200 51 -147 164 -250 311 -284 29 -7 1101 -10 3174 -10
3411 0 3180 -4 3283 56 89 52 171 156 200 253 11 39 14 6286 2 6347 -30 167
-164 302 -329 333 -36 7 -1105 10 -3175 9 -2714 0 -3128 -2 -3176 -15z"/>
</g>
</svg>
