<svg width="128" height="52" viewBox="0 0 128 52" fill="none" xmlns="http://www.w3.org/2000/svg">
    <path d="M44.2506 34.374C48.2106 34.374 51.0266 32.196 51.4226 28.786H47.4186C47.0886 30.304 46.0766 31.25 44.2506 31.25C42.0066 31.25 40.7086 29.512 40.7086 25.882C40.7086 22.384 42.0286 20.58 44.4266 20.58C46.2746 20.58 47.1326 21.592 47.3306 22.516H51.3566C50.9826 19.942 48.6286 17.5 44.4046 17.5C39.6746 17.5 36.6166 20.602 36.6166 25.882C36.6166 31.426 39.5426 34.374 44.2506 34.374ZM61.523 34.374C66.231 34.374 69.553 31.36 69.553 25.882C69.553 20.514 66.231 17.5 61.523 17.5C56.815 17.5 53.515 20.514 53.515 25.882C53.515 31.36 56.815 34.374 61.523 34.374ZM61.523 31.294C59.191 31.294 57.607 29.644 57.607 25.882C57.607 22.23 59.191 20.58 61.523 20.58C63.855 20.58 65.439 22.23 65.439 25.882C65.439 29.644 63.855 31.294 61.523 31.294ZM82.459 27.422C84.417 26.542 85.341 25.002 85.341 22.934C85.341 20.118 83.603 17.874 79.643 17.874H72.361V34H76.365V28.17H78.631L81.601 34H86.045L82.459 27.422ZM78.785 20.69C80.369 20.69 81.227 21.438 81.227 22.912C81.227 24.518 80.369 25.332 78.807 25.332H76.365V20.69H78.785ZM92.447 34V17.874H88.443V34H92.447ZM99.5849 34V23.594L105.481 34H109.617V17.874H105.877V28.368L100.003 17.874H95.8669V34H99.5849ZM119.975 27.84H123.473V29.886C122.703 30.788 121.713 31.36 120.283 31.36C117.863 31.36 116.477 29.82 116.477 25.926C116.477 22.472 117.819 20.58 120.261 20.58C121.955 20.58 122.879 21.372 123.121 22.516H127.059C126.575 19.304 123.847 17.5 120.261 17.5C115.685 17.5 112.429 20.602 112.429 25.926C112.429 31.558 115.531 34.374 119.623 34.374C121.427 34.374 122.791 33.78 123.847 32.68L124.177 34H127.345V25.046H119.975V27.84Z" fill="#F2F2F2"/>
    <path d="M22 27V16.9816L13.5299 21.0902V16H11C4.92825 16 0 20.9282 0 27C0 33.0718 4.91813 38 11 38C17.0718 38 22 33.0718 22 27Z" fill="white"/>
</svg>
